<?xml version="1.0" encoding="utf-8"?>
<!-- Generator: Adobe Illustrator 19.0.0, SVG Export Plug-In . SVG Version: 6.00 Build 0)  -->
<svg version="1.1" id="Logo" xmlns="http://www.w3.org/2000/svg" xmlns:xlink="http://www.w3.org/1999/xlink" x="0px" y="0px"
	 viewBox="0 0 485.5 526.5" style="enable-background:new 0 0 485.5 526.5;" xml:space="preserve">
<style type="text/css">
	.st0{fill:#FF931E;stroke:#000000;stroke-miterlimit:10;}
	.st1{fill:#7AC943;stroke:#000000;stroke-miterlimit:10;}
	.st2{fill:#0071BC;stroke:#000000;stroke-miterlimit:10;}
	.st3{fill:#D9E021;stroke:#000000;stroke-miterlimit:10;}
	.st4{fill:#3FA9F5;stroke:#000000;stroke-miterlimit:10;}
	.st5{fill:#93278F;stroke:#000000;stroke-miterlimit:10;}
	.st6{fill:#FF1D25;stroke:#000000;stroke-miterlimit:10;}
</style>
<polygon id="XMLID_13_" class="st0" points="484.7,183.3 343.2,41.8 343.2,324 484.7,465.4 484.8,465.2 485,182.9 "/>
<polygon id="XMLID_10_" class="st1" points="342.8,183.5 343,41.9 201.2,183.7 342.6,325.1 "/>
<polygon id="XMLID_12_" class="st2" points="242.8,141.9 242.8,0.5 242.1,0.5 101.4,141.2 101.2,283.2 "/>
<polygon id="XMLID_14_" class="st3" points="343.2,525.3 342.5,524.6 342.9,524.2 60.6,524.4 201.5,383.5 343.1,383.4 343.1,383.4 "/>
<polygon id="XMLID_15_" class="st4" points="101.5,283.5 101.2,483.5 201.5,383.5 201.5,183.5 "/>
<polygon id="XMLID_16_" class="st5" points="1.2,41.8 101.2,141.8 201.2,41.8 "/>
<polygon id="XMLID_7_" class="st6" points="201.9,183.4 201.9,382.9 401.9,382.9 202.4,183.4 "/>
</svg>
